<mxfile host="app.diagrams.net" modified="2024-04-18T07:06:02.792Z" agent="Mozilla/5.0 (Windows NT 10.0; Win64; x64) AppleWebKit/537.36 (KHTML, like Gecko) Chrome/123.0.0.0 Safari/537.36" version="24.2.5" etag="pbvo2LohrSn2gHWDx5-v" type="github">
  <diagram name="第 1 页" id="GUYC-fMZ0aTj65O2yGYu">
    <mxGraphModel>
      <root>
        <mxCell id="0" />
        <mxCell id="1" parent="0" />
      </root>
    </mxGraphModel>
  </diagram>
</mxfile>
